<?xml version="1.0" encoding="UTF-8" standalone="no"?>
<!-- Generator: Adobe Illustrator 20.0.0, SVG Export Plug-In . SVG Version: 6.00 Build 0)  -->

<svg
   xmlns:dc="http://purl.org/dc/elements/1.1/"
   xmlns:cc="http://creativecommons.org/ns#"
   xmlns:rdf="http://www.w3.org/1999/02/22-rdf-syntax-ns#"
   xmlns:svg="http://www.w3.org/2000/svg"
   xmlns="http://www.w3.org/2000/svg"
   xmlns:sodipodi="http://sodipodi.sourceforge.net/DTD/sodipodi-0.dtd"
   xmlns:inkscape="http://www.inkscape.org/namespaces/inkscape"
   version="1.1"
   id="Calque_1"
   x="0px"
   y="0px"
   viewBox="0 0 223 50"
   style="enable-background:new 0 0 223 50;"
   xml:space="preserve"
   sodipodi:docname="logo.svg"
   inkscape:version="0.92.1 r15371"><metadata
     id="metadata9"><rdf:RDF><cc:Work
         rdf:about=""><dc:format>image/svg+xml</dc:format><dc:type
           rdf:resource="http://purl.org/dc/dcmitype/StillImage" /><dc:title></dc:title></cc:Work></rdf:RDF></metadata><defs
     id="defs7"><clipPath
       clipPathUnits="userSpaceOnUse"
       id="clipPath205"><path
         d="M 0,170.079 H 737.008 V 0 H 0 Z"
         id="path203"
         inkscape:connector-curvature="0" /></clipPath><clipPath
       clipPathUnits="userSpaceOnUse"
       id="clipPath205-8"><path
         d="M 0,170.079 H 737.008 V 0 H 0 Z"
         id="path203-7"
         inkscape:connector-curvature="0" /></clipPath></defs><sodipodi:namedview
     pagecolor="#ffffff"
     bordercolor="#666666"
     borderopacity="1"
     objecttolerance="10"
     gridtolerance="10"
     guidetolerance="10"
     inkscape:pageopacity="0"
     inkscape:pageshadow="2"
     inkscape:window-width="1920"
     inkscape:window-height="1017"
     id="namedview5"
     showgrid="false"
     showguides="true"
     inkscape:guide-bbox="true"
     inkscape:zoom="5.6568543"
     inkscape:cx="49.982814"
     inkscape:cy="50.857024"
     inkscape:window-x="1358"
     inkscape:window-y="-8"
     inkscape:window-maximized="1"
     inkscape:current-layer="Calque_1"><sodipodi:guide
       position="10.5,46.445312"
       orientation="1,0"
       id="guide3793"
       inkscape:locked="false" /><sodipodi:guide
       position="10.722656,46.300781"
       orientation="0,1"
       id="guide3795"
       inkscape:locked="false" /><sodipodi:guide
       position="212.60156,41.515625"
       orientation="1,0"
       id="guide3797"
       inkscape:locked="false" /><sodipodi:guide
       position="192.77344,0.6953125"
       orientation="0,1"
       id="guide3799"
       inkscape:locked="false" /></sodipodi:namedview><g
     transform="matrix(0.32691422,0,0,-0.32691422,-8.918,51.379491)"
     id="g199"><g
       id="g201"
       clip-path="url(#clipPath205-8)"><g
         id="g207"
         transform="translate(677.6076,140.92)"><path
           d="M 0,0 V 2.271 H -32.024 V 0.002 h 4.972 V -43.646 L -56.889,2.271 h -13.89 V 0.002 h 4.958 v -58.525 h -8.594 l -21.64,63.562 -22.337,-63.562 h -8.286 V 0.002 h 4.985 v 2.269 h -13.135 l -16.551,-47.959 -17.363,47.959 h -12.881 V 0.002 h 4.966 v -58.525 h -9.852 c -2.791,0 -5.237,2.495 -5.237,6.717 v 9.231 c 0,7.071 -2.286,12.992 -9.376,15.003 6.162,1.865 10.468,7.756 10.468,14.056 0,8.969 -6.69,15.787 -19.627,15.787 h -19.432 V 0.002 h 4.955 v -58.525 h -10.013 l -21.633,63.562 -22.342,-63.562 h -4.401 v -2.274 h 12.474 v 2.274 h -5.512 l 6.231,17.743 h 20.281 l 5.945,-17.743 h -7.629 v -2.274 h 42.389 v 2.274 h -7.679 v 29.829 h 5.145 c 7.513,0 11.297,-3.078 11.297,-10.378 v -5.414 c 0,-12.855 8.463,-16.311 13.083,-16.311 h 18.143 v 2.274 h -5.408 v 51.829 l 20.362,-54.774 19.236,56.406 v -53.461 h -4.961 v -2.274 h 29.431 v 2.274 h -5.514 l 6.233,17.743 h 20.287 l 5.941,-17.743 h -7.625 v -2.274 h 32.432 v 2.274 h -4.984 V -3.23 l 38.769,-59.628 v 62.86 h 11.697 v -58.525 h -4.979 v -2.274 H 0 v 2.274 H -4.97 V 0.002 Z m -269.212,-38.555 9.517,27.652 9.303,-27.652 z m 57.71,12.129 h -5.145 V 0.002 h 4.272 c 7.567,0 12.647,-4.868 12.647,-13.869 0,-4.953 -3.874,-12.559 -11.774,-12.559 m 102.646,-12.129 9.526,27.652 9.294,-27.652 z"
           style="fill:#231f20;fill-opacity:1;fill-rule:nonzero;stroke:none"
           id="path209"
           inkscape:connector-curvature="0" /></g><g
         id="g211"
         transform="translate(338.2751,144.7024)"><path
           d="m 0,0 c -16.63,0 -27.391,-18.459 -27.391,-33.087 0,-15.983 11.657,-33.003 27.391,-33.003 15.721,0 27.389,15.999 27.389,33.003 C 27.389,-18.443 15.746,0 0,0 m -0.002,-63.912 c -15.932,0 -16.834,20.885 -16.834,30.825 0,9.857 1.188,30.82 16.834,30.82 15.615,0 16.923,-20.969 16.923,-30.82 0,-9.859 -1.019,-30.825 -16.923,-30.825"
           style="fill:#231f20;fill-opacity:1;fill-rule:nonzero;stroke:none"
           id="path213"
           inkscape:connector-curvature="0" /></g><g
         id="g215"
         transform="translate(290.2592,140.9238)"><path
           d="M 0,0 4.97,-0.002 V -58.527 H 0 v -2.274 h 18.053 v 2.274 h -4.97 v 58.525 l 4.97,-0.002 V 2.267 H 0 Z"
           style="fill:#231f20;fill-opacity:1;fill-rule:nonzero;stroke:none"
           id="path217"
           inkscape:connector-curvature="0" /></g><g
         id="g219"
         transform="translate(234.3737,81.8559)"><path
           d="m 0,0 c -2.78,0 -5.233,2.567 -5.233,6.804 v 9.684 c 0,7.144 -2.294,12.993 -9.375,15.002 6.16,1.865 10.467,7.761 10.467,14.058 0,8.97 -6.693,15.788 -19.626,15.788 h -19.437 v -2.271 h 4.958 V 0.536 h -4.958 v -2.268 h 20.743 v 2.268 h -7.673 v 29.835 h 5.144 c 7.512,0 11.294,-3.103 11.294,-10.378 v -6.037 c 0,-12.86 8.469,-16.311 13.085,-16.311 2.947,0 4.31,0.921 5.664,2.172 L 3.72,1.655 C 1.984,0.154 0.817,0 0,0 m -24.99,32.638 h -5.144 v 26.427 h 4.272 c 7.567,0 12.648,-4.866 12.648,-13.867 0,-4.953 -3.876,-12.56 -11.776,-12.56"
           style="fill:#231f20;fill-opacity:1;fill-rule:nonzero;stroke:none"
           id="path221"
           inkscape:connector-curvature="0" /></g><g
         id="g223"
         transform="translate(161.3391,144.7024)"><path
           d="m 0,0 c -16.63,0 -27.387,-18.459 -27.387,-33.087 0,-15.983 11.658,-33.003 27.387,-33.003 15.723,0 27.393,15.999 27.393,33.003 C 27.393,-18.443 15.75,0 0,0 m 0,-63.912 c -15.93,0 -16.834,20.885 -16.834,30.825 0,9.857 1.19,30.82 16.834,30.82 15.619,0 16.921,-20.969 16.921,-30.82 0,-9.859 -1.014,-30.825 -16.921,-30.825"
           style="fill:#231f20;fill-opacity:1;fill-rule:nonzero;stroke:none"
           id="path225"
           inkscape:connector-curvature="0" /></g><g
         id="g227"
         transform="translate(113.3327,140.9238)"><path
           d="M 0,0 4.97,-0.002 V -58.527 H 0 v -2.274 h 18.055 l -0.002,2.274 h -4.968 v 58.525 l 4.97,-0.002 V 2.267 H 0 Z"
           style="fill:#231f20;fill-opacity:1;fill-rule:nonzero;stroke:none"
           id="path229"
           inkscape:connector-curvature="0" /></g><g
         id="g231"
         transform="translate(92.9807,104.8102)"><path
           d="m 0,0 h 5.843 v -11.426 c 0,-5.916 -4.491,-12.595 -12.387,-12.595 -14.983,0 -16.483,18.97 -16.483,30.825 0,10.803 1.148,30.819 17.663,30.819 6.266,0 13.204,-5.595 14.633,-17.967 h 2.026 V 39.628 H 9.298 C 8.934,37.479 7.804,36.55 5.581,36.55 c -2.205,0 -4.875,3.341 -10.989,3.341 -18.651,0 -28.172,-19.783 -28.172,-33.087 0,-14.008 10.573,-33.001 27.036,-33.001 8.968,0 9.753,5.347 15.18,5.347 1.671,0 2.809,-1.569 3.019,-3.836 h 2.301 V 0 h 4.97 V 2.271 H 0 Z"
           style="fill:#231f20;fill-opacity:1;fill-rule:nonzero;stroke:none"
           id="path233"
           inkscape:connector-curvature="0" /></g><g
         id="g235"
         transform="translate(269.9119,104.8102)"><path
           d="m 0,0 h 5.843 v -11.426 c 0,-5.916 -4.488,-12.595 -12.387,-12.595 -14.985,0 -16.481,18.97 -16.481,30.825 0,10.803 1.146,30.819 17.661,30.819 6.268,0 13.208,-5.595 14.633,-17.967 h 2.026 V 39.628 H 9.294 C 8.934,37.479 7.804,36.55 5.581,36.55 c -2.203,0 -4.872,3.341 -10.987,3.341 -18.653,0 -28.174,-19.783 -28.174,-33.087 0,-14.008 10.576,-33.001 27.034,-33.001 8.97,0 9.755,5.347 15.18,5.347 1.671,0 2.809,-1.569 3.021,-3.836 H 13.96 L 13.956,0 h 4.972 V 2.271 H 0 Z"
           style="fill:#231f20;fill-opacity:1;fill-rule:nonzero;stroke:none"
           id="path237"
           inkscape:connector-curvature="0" /></g><g
         id="g239"
         transform="translate(151.8519,47.0837)"><path
           d="M 0,0 H -2.664 V 2.514 H 0 v 1.688 c 0,2.214 0.6,3.903 1.689,4.99 0.975,0.976 2.402,1.501 4.166,1.501 1.349,0 2.251,-0.149 3.189,-0.487 V 7.692 C 7.994,7.992 7.204,8.18 6.229,8.18 3.979,8.18 2.853,6.829 2.853,4.052 V 2.477 H 9.005 V 0 H 2.89 V -16.847 H 0 Z"
           style="fill:#231f20;fill-opacity:1;fill-rule:nonzero;stroke:none"
           id="path241"
           inkscape:connector-curvature="0" /></g><g
         id="g243"
         transform="translate(168.2831,49.6347)"><path
           d="m 0,0 h 2.888 v -5.065 c 1.426,3.227 4.241,5.553 7.918,5.403 V -2.776 H 10.58 c -4.239,0 -7.692,-3.039 -7.692,-8.893 v -7.729 H 0 Z"
           style="fill:#231f20;fill-opacity:1;fill-rule:nonzero;stroke:none"
           id="path245"
           inkscape:connector-curvature="0" /></g><g
         id="g247"
         transform="translate(199.1187,37.3651)"><path
           d="m 0,0 v 1.876 c -1.425,0.413 -3.34,0.826 -5.702,0.826 -3.641,0 -5.666,-1.577 -5.666,-4.015 v -0.075 c 0,-2.439 2.251,-3.865 4.878,-3.865 C -2.926,-5.253 0,-3.077 0,0 m -14.294,-1.501 v 0.075 c 0,4.09 3.376,6.266 8.291,6.266 2.476,0 4.241,-0.337 5.966,-0.825 v 0.676 c 0,3.489 -2.139,5.29 -5.779,5.29 -2.288,0 -4.089,-0.6 -5.89,-1.426 l -0.863,2.364 c 2.139,0.976 4.239,1.613 7.054,1.613 2.739,0 4.839,-0.712 6.266,-2.138 C 2.064,9.081 2.739,7.204 2.739,4.728 V -7.129 h -2.776 v 2.927 c -1.351,-1.764 -3.602,-3.34 -7.017,-3.34 -3.602,0 -7.24,2.064 -7.24,6.041"
           style="fill:#231f20;fill-opacity:1;fill-rule:nonzero;stroke:none"
           id="path249"
           inkscape:connector-curvature="0" /></g><g
         id="g251"
         transform="translate(227.439,40.8553)"><path
           d="m 0,0 v 0.074 c 0,3.978 -3.452,6.566 -7.129,6.566 -3.677,0 -6.716,-2.55 -6.716,-6.528 V 0.037 c 0,-3.902 3.114,-6.604 6.716,-6.604 C -3.452,-6.567 0,-3.902 0,0 m -15.908,-13.996 1.312,2.252 c 2.215,-1.614 4.691,-2.477 7.467,-2.477 4.278,0 7.056,2.364 7.056,6.904 v 2.288 c -1.689,-2.25 -4.054,-4.089 -7.618,-4.089 -4.652,0 -9.119,3.489 -9.119,9.08 v 0.075 c 0,5.666 4.504,9.155 9.119,9.155 3.639,0 6.004,-1.801 7.579,-3.902 v 3.489 h 2.89 V -7.242 c 0,-3.002 -0.902,-5.291 -2.477,-6.866 -1.726,-1.727 -4.314,-2.59 -7.391,-2.59 -3.228,0 -6.23,0.901 -8.818,2.702"
           style="fill:#231f20;fill-opacity:1;fill-rule:nonzero;stroke:none"
           id="path253"
           inkscape:connector-curvature="0" /></g><g
         id="g255"
         transform="translate(240.4147,49.6347)"><path
           d="m 0,0 h 2.888 v -5.065 c 1.426,3.227 4.241,5.553 7.918,5.403 V -2.776 H 10.58 c -4.239,0 -7.692,-3.039 -7.692,-8.893 v -7.729 H 0 Z"
           style="fill:#231f20;fill-opacity:1;fill-rule:nonzero;stroke:none"
           id="path257"
           inkscape:connector-curvature="0" /></g><g
         id="g259"
         transform="translate(271.2137,37.3651)"><path
           d="m 0,0 v 1.876 c -1.425,0.413 -3.34,0.826 -5.702,0.826 -3.641,0 -5.666,-1.577 -5.666,-4.015 v -0.075 c 0,-2.439 2.251,-3.865 4.878,-3.865 C -2.926,-5.253 0,-3.077 0,0 m -14.294,-1.501 v 0.075 c 0,4.09 3.376,6.266 8.29,6.266 2.477,0 4.242,-0.337 5.967,-0.825 v 0.676 c 0,3.489 -2.139,5.29 -5.779,5.29 -2.288,0 -4.089,-0.6 -5.89,-1.426 l -0.863,2.364 c 2.139,0.976 4.239,1.613 7.054,1.613 2.739,0 4.839,-0.712 6.266,-2.138 C 2.064,9.081 2.739,7.204 2.739,4.728 V -7.129 h -2.776 v 2.927 c -1.351,-1.764 -3.602,-3.34 -7.017,-3.34 -3.602,0 -7.24,2.064 -7.24,6.041"
           style="fill:#231f20;fill-opacity:1;fill-rule:nonzero;stroke:none"
           id="path261"
           inkscape:connector-curvature="0" /></g><g
         id="g263"
         transform="translate(283.8149,49.6347)"><path
           d="m 0,0 h 2.888 v -3.376 c 1.276,2.101 3.303,3.789 6.642,3.789 4.689,0 7.428,-3.152 7.428,-7.767 v -12.044 h -2.887 v 11.331 c 0,3.602 -1.952,5.854 -5.367,5.854 -3.34,0 -5.816,-2.439 -5.816,-6.079 V -19.398 H 0 Z"
           style="fill:#231f20;fill-opacity:1;fill-rule:nonzero;stroke:none"
           id="path265"
           inkscape:connector-curvature="0" /></g><g
         id="g267"
         transform="translate(309.4326,39.8418)"><path
           d="m 0,0 v 0.075 c 0,5.479 4.278,10.131 9.943,10.131 3.676,0 5.965,-1.539 7.766,-3.452 L 15.796,4.728 C 14.258,6.341 12.532,7.654 9.905,7.654 5.965,7.654 2.963,4.315 2.963,0.151 V 0.075 c 0,-4.202 3.077,-7.542 7.129,-7.542 2.477,0 4.39,1.239 5.928,2.889 l 1.84,-1.726 C 15.908,-8.48 13.582,-10.055 9.943,-10.055 4.278,-10.055 0,-5.441 0,0"
           style="fill:#231f20;fill-opacity:1;fill-rule:nonzero;stroke:none"
           id="path269"
           inkscape:connector-curvature="0" /></g><g
         id="g271"
         transform="translate(349.4606,41.0049)"><path
           d="M 0,0 C -0.299,3.527 -2.326,6.604 -6.191,6.604 -9.567,6.604 -12.119,3.79 -12.493,0 Z m -15.42,-1.125 v 0.075 c 0,5.59 3.94,10.093 9.305,10.093 5.741,0 9.043,-4.578 9.043,-10.244 0,-0.375 0,-0.6 -0.038,-0.938 h -15.383 c 0.413,-4.202 3.376,-6.566 6.827,-6.566 2.664,0 4.541,1.089 6.118,2.739 L 2.253,-7.58 c -1.952,-2.175 -4.317,-3.638 -7.994,-3.638 -5.328,0 -9.679,4.089 -9.679,10.093"
           style="fill:#231f20;fill-opacity:1;fill-rule:nonzero;stroke:none"
           id="path273"
           inkscape:connector-curvature="0" /></g><g
         id="g275"
         transform="translate(359.5465,32.7129)"><path
           d="m 0,0 1.463,2.064 c 2.1,-1.577 4.429,-2.477 6.716,-2.477 2.326,0 4.015,1.201 4.015,3.077 v 0.075 c 0,1.951 -2.289,2.702 -4.839,3.414 -3.041,0.863 -6.417,1.914 -6.417,5.479 v 0.075 c 0,3.339 2.776,5.553 6.604,5.553 2.363,0 4.99,-0.826 6.978,-2.139 l -1.312,-2.176 c -1.801,1.163 -3.865,1.875 -5.741,1.875 -2.29,0 -3.753,-1.2 -3.753,-2.813 v -0.075 c 0,-1.839 2.401,-2.552 4.99,-3.34 3.002,-0.9 6.229,-2.063 6.229,-5.553 V 2.964 c 0,-3.677 -3.038,-5.816 -6.905,-5.816 C 5.253,-2.852 2.176,-1.763 0,0"
           style="fill:#231f20;fill-opacity:1;fill-rule:nonzero;stroke:none"
           id="path277"
           inkscape:connector-curvature="0" /></g><g
         id="g279"
         transform="translate(411.315,50.7987)"><path
           d="m 0,0 v 0.074 c 0,2.101 -1.575,3.64 -3.714,3.64 -2.365,0 -3.979,-1.65 -3.979,-3.789 v -0.076 c 0,-1.538 0.639,-2.701 2.628,-4.84 C -1.726,-3.866 0,-2.252 0,0 m 0.788,-15.009 -7.017,7.241 c -3.489,-1.275 -5.027,-3.414 -5.027,-5.628 v -0.075 c 0,-2.814 2.251,-4.953 5.478,-4.953 2.475,0 4.653,1.313 6.566,3.415 m 1.801,-1.838 c -2.402,-2.59 -5.178,-4.091 -8.593,-4.091 -4.727,0 -8.254,2.964 -8.254,7.355 v 0.074 c 0,3.49 2.326,6.004 6.342,7.58 -1.802,2.101 -2.628,3.715 -2.628,5.778 v 0.076 c 0,3.451 2.776,6.228 6.942,6.228 3.677,0 6.378,-2.664 6.378,-5.928 V 0.15 c 0,-3.34 -2.363,-5.479 -6.191,-6.829 l 6.004,-6.117 c 1.164,1.689 2.214,3.678 3.152,5.854 L 8.179,-8.068 C 7.017,-10.544 5.816,-12.796 4.39,-14.672 l 4.579,-4.69 -2.253,-1.726 z"
           style="fill:#231f20;fill-opacity:1;fill-rule:nonzero;stroke:none"
           id="path281"
           inkscape:connector-curvature="0" /></g><g
         id="g283"
         transform="translate(460.0777,39.8795)"><path
           d="m 0,0 v 0.075 c 0,4.577 -3.15,7.505 -6.828,7.505 -3.602,0 -7.017,-3.04 -7.017,-7.467 V 0.038 c 0,-4.503 3.415,-7.505 7.017,-7.505 C -3.075,-7.467 0,-4.69 0,0 m -13.733,-5.928 v -3.715 h -2.888 v 27.391 h 2.888 V 5.853 c 1.577,2.327 3.865,4.315 7.43,4.315 4.653,0 9.268,-3.677 9.268,-10.055 V 0.038 c 0,-6.342 -4.577,-10.094 -9.268,-10.094 -3.602,0 -5.928,1.951 -7.43,4.128"
           style="fill:#231f20;fill-opacity:1;fill-rule:nonzero;stroke:none"
           id="path285"
           inkscape:connector-curvature="0" /></g><g
         id="g287"
         transform="translate(486.3343,41.0049)"><path
           d="M 0,0 C -0.299,3.527 -2.326,6.604 -6.191,6.604 -9.567,6.604 -12.119,3.79 -12.493,0 Z m -15.42,-1.125 v 0.075 c 0,5.59 3.94,10.093 9.305,10.093 5.741,0 9.043,-4.578 9.043,-10.244 0,-0.375 0,-0.6 -0.038,-0.938 h -15.383 c 0.413,-4.202 3.376,-6.566 6.827,-6.566 2.664,0 4.541,1.089 6.118,2.739 L 2.253,-7.58 c -1.952,-2.175 -4.317,-3.638 -7.992,-3.638 -5.33,0 -9.681,4.089 -9.681,10.093"
           style="fill:#231f20;fill-opacity:1;fill-rule:nonzero;stroke:none"
           id="path289"
           inkscape:connector-curvature="0" /></g><g
         id="g291"
         transform="translate(510.9039,37.3651)"><path
           d="m 0,0 v 1.876 c -1.425,0.413 -3.34,0.826 -5.702,0.826 -3.641,0 -5.666,-1.577 -5.666,-4.015 v -0.075 c 0,-2.439 2.251,-3.865 4.878,-3.865 C -2.926,-5.253 0,-3.077 0,0 m -14.294,-1.501 v 0.075 c 0,4.09 3.376,6.266 8.291,6.266 2.476,0 4.241,-0.337 5.966,-0.825 v 0.676 c 0,3.489 -2.138,5.29 -5.779,5.29 -2.288,0 -4.089,-0.6 -5.89,-1.426 l -0.863,2.364 c 2.139,0.976 4.239,1.613 7.054,1.613 2.739,0 4.839,-0.712 6.266,-2.138 C 2.064,9.081 2.739,7.204 2.739,4.728 V -7.129 h -2.776 v 2.927 c -1.351,-1.764 -3.602,-3.34 -7.017,-3.34 -3.602,0 -7.24,2.064 -7.24,6.041"
           style="fill:#231f20;fill-opacity:1;fill-rule:nonzero;stroke:none"
           id="path293"
           inkscape:connector-curvature="0" /></g><g
         id="g295"
         transform="translate(523.2406,37.591)"><path
           d="M 0,0 V 12.044 H 2.89 V 0.712 c 0,-3.602 1.951,-5.853 5.364,-5.853 3.303,0 5.817,2.438 5.817,6.078 v 11.107 h 2.851 V -7.355 h -2.851 v 3.377 C 12.758,-6.079 10.77,-7.768 7.43,-7.768 2.739,-7.768 0,-4.616 0,0"
           style="fill:#231f20;fill-opacity:1;fill-rule:nonzero;stroke:none"
           id="path297"
           inkscape:connector-curvature="0" /></g><g
         id="g299"
         transform="translate(551.3736,35.3769)"><path
           d="m 0,0 v 11.707 h -2.701 v 2.551 H 0 v 5.854 H 2.89 V 14.258 H 9.044 V 11.707 H 2.89 V 0.375 c 0,-2.363 1.312,-3.227 3.264,-3.227 0.977,0 1.801,0.188 2.815,0.675 V -4.653 C 7.955,-5.178 6.868,-5.478 5.478,-5.478 2.365,-5.478 0,-3.94 0,0"
           style="fill:#231f20;fill-opacity:1;fill-rule:nonzero;stroke:none"
           id="path301"
           inkscape:connector-curvature="0" /></g><g
         id="g303"
         transform="translate(583.7885,49.6347)"><path
           d="m 0,0 h 3.077 l -8.142,-20.036 c -1.651,-4.015 -3.527,-5.479 -6.454,-5.479 -1.613,0 -2.814,0.338 -4.129,0.976 l 0.977,2.289 c 0.938,-0.488 1.801,-0.713 3.038,-0.713 1.726,0 2.815,0.901 3.979,3.64 L -16.472,0 h 3.189 l 7.054,-16.172 z"
           style="fill:#231f20;fill-opacity:1;fill-rule:nonzero;stroke:none"
           id="path305"
           inkscape:connector-curvature="0" /></g></g></g></svg>